<?xml version="1.0" encoding="utf-8"?>
<!-- Generator: Adobe Illustrator 17.1.0, SVG Export Plug-In . SVG Version: 6.00 Build 0)  -->
<!DOCTYPE svg PUBLIC "-//W3C//DTD SVG 1.1//EN" "http://www.w3.org/Graphics/SVG/1.1/DTD/svg11.dtd">
<svg version="1.1" id="Layer_1" xmlns="http://www.w3.org/2000/svg" xmlns:xlink="http://www.w3.org/1999/xlink" x="0px" y="0px"
	 viewBox="0 0 422.8 570.9" enable-background="new 0 0 422.8 570.9" xml:space="preserve">
<g>
	<path fill="#5E5E5E" d="M296.5,0c36.1,1.2,68.5,11.1,93,39.6c10.2,11.8,16,25.5,17.8,41.3c3.6,31.2-6.7,56.8-26.7,80.6
		c-11.5,13.7-17.2,31.7-19.2,50c-0.6,5.7,3,10.4,8.1,14c13,8.9,28,11.9,42.9,14.7c8.4,1.6,11.3,4.5,10.3,12.5
		c-0.4,3-0.1,6.1-0.1,9.1c-16,4.2-31.9,6.3-45.4,15.1c-16.9,10.9-17.5,18.6-12.8,36.7c5.8,22,17.2,41.1,30.5,59.8
		c18,25.2,18.8,67.2,0.3,92.7c-15,20.7-36.1,32-60.6,37.6c-25.9,5.9-49.7,1.2-78.1,2c-3.1-0.4-6.2-0.2-8.5-0.2
		c-79.1,0-158.1,0-237.2,0h-0.1c-5.9,0-10.8-4.8-10.8-10.8V12.6c0-6,4.9-10.9,10.9-10.9H11 M158,239.5c3.1,1.1,4.2-0.5,5.5-1.4
		c43.3-28.7,86.6-57.4,130-86.1c3.5-2.3,4.7-5.1,4.6-9.2c-0.2-10.5-0.5-21.1,0.1-31.6c0.4-6.1-2.3-9.2-7-12.1
		C257.5,78.5,224,57.6,190.3,37.1c-10.3-6.2-19.9-13.7-32.4-18.8c0,14.2,1,27-0.3,39.6c-1.3,13.3,2.2,22.4,15.5,26.7
		c3.4,1.1,6.4,3.6,9.6,5.4c21.6,12.2,43.3,24.5,65.6,37.1c-1.7,1.3-2.6,2.1-3.5,2.6c-27.3,16.8-54.6,33.7-82,50.5
		c-2.2,1.3-4.9,2.3-4.9,5.4C158,203.7,158,221.8,158,239.5z M247,374.8c-22.4,13.8-43.4,26.8-64.4,39.8c-8.4,5.2-19.3,8.8-24.6,16.3
		c-5.6,8-1.6,19.8-1.8,30c-0.2,8.9-1,17.9,0.7,26.7c1.3-0.2,1.9-0.1,2.3-0.3c44.3-29.3,88.5-58.7,132.9-88c3.3-2.2,4.3-4.7,4.3-8.5
		c-0.2-10.5-0.5-21.1,0.1-31.6c0.3-6.3-2.2-9.7-7.4-12.8c-33.5-20.4-66.8-41.1-100.1-61.6c-10.3-6.3-20.7-12.5-32.8-19.8
		c0,17.3,0.5,32.5-0.2,47.7c-0.4,8.3,2.7,12.7,9.8,16.5C192.6,343.8,219.2,359.1,247,374.8z"/>
</g>
<rect x="49.5" y="516.3" fill="none" width="285.9" height="54.6"/>
<text transform="matrix(1 0 0 1 49.4969 551.3831)" fill="#5E5E5E" font-family="'HammersmithOne-Regular'" font-size="48.1987">ben cuslidge</text>
</svg>
